<svg width="150" height="88" viewBox="0 0 150 88" fill="none" xmlns="http://www.w3.org/2000/svg">
<g clip-path="url(#clip0_2176_4)">
<path d="M6.9669 79.8767C7.61199 79.5715 8.10741 79.1369 8.44802 78.5625C8.78862 77.9882 8.95892 77.3052 8.95892 76.5188C8.95892 75.7323 8.79378 75.039 8.45833 74.4543C8.12289 73.8697 7.63779 73.4144 6.99787 73.0884C6.35794 72.7676 5.58384 72.6021 4.67557 72.6021H0V84.6265H2.45132V80.3321H4.37625L6.66758 84.6265H9.38726L6.83273 79.9233C6.87401 79.9026 6.93078 79.8974 6.97206 79.8767H6.9669ZM2.45132 74.6354H4.21111C4.71685 74.6354 5.1297 74.7079 5.45483 74.8528C5.77995 74.9976 6.0225 75.2098 6.18248 75.484C6.34246 75.7634 6.42503 76.1049 6.42503 76.5136C6.42503 76.9224 6.34246 77.2483 6.18248 77.5174C6.0225 77.7916 5.77995 77.9934 5.45999 78.1331C5.14003 78.2728 4.72717 78.3401 4.22143 78.3401H2.45132V74.6354Z" fill="black"/>
<path d="M17.19 76.6224C16.803 76.2447 16.3592 75.9601 15.8483 75.7687C15.3374 75.5824 14.7903 75.4893 14.202 75.4893C13.3299 75.4893 12.5661 75.6859 11.921 76.0791C11.2708 76.4723 10.7702 77.0156 10.4192 77.7193C10.0683 78.4178 9.8877 79.2353 9.8877 80.1666C9.8877 81.0979 10.0632 81.9413 10.4244 82.6346C10.7805 83.3279 11.2914 83.866 11.9571 84.2386C12.6228 84.6163 13.4124 84.8025 14.3259 84.8025C15.0277 84.8025 15.647 84.699 16.1889 84.4973C16.7256 84.2903 17.1746 84.0057 17.5358 83.628C17.8919 83.2555 18.1499 82.8209 18.2893 82.3242L16.1011 81.9154C16.0134 82.1482 15.8896 82.3397 15.7296 82.5001C15.5696 82.6605 15.3683 82.7795 15.1413 82.8571C14.9142 82.9347 14.6562 82.9761 14.3672 82.9761C13.9491 82.9761 13.5827 82.8881 13.2679 82.7122C12.9531 82.5363 12.7106 82.2673 12.5351 81.9154C12.3803 81.5946 12.3029 81.2014 12.2874 80.7461H18.4234V80.0683C18.4234 79.2922 18.3151 78.6196 18.0983 78.0504C17.8816 77.4813 17.5771 77.0053 17.1952 76.6276L17.19 76.6224ZM13.1596 77.6054C13.4486 77.414 13.8046 77.3157 14.2227 77.3157C14.6407 77.3157 14.9813 77.4088 15.2651 77.6003C15.5489 77.7917 15.7605 78.0608 15.8999 78.4074C15.9979 78.6454 16.0495 78.93 16.0805 79.2249H12.2977C12.3235 78.9248 12.3803 78.6402 12.4938 78.3867C12.6435 78.0556 12.8654 77.7917 13.1596 77.6003V77.6054Z" fill="black"/>
<path d="M24.7869 79.4059L23.1716 79.0851C22.7485 78.9972 22.4492 78.8782 22.2737 78.7229C22.0982 78.5677 22.0105 78.3763 22.0105 78.1486C22.0105 77.8692 22.1447 77.6467 22.413 77.4812C22.6814 77.3156 23.0117 77.2328 23.409 77.2328C23.8477 77.2328 24.1986 77.3311 24.4567 77.5277C24.7147 77.7243 24.8901 77.9727 24.983 78.2831L27.1196 77.9054C27.0112 77.4139 26.7996 76.9896 26.4745 76.6326C26.1545 76.2704 25.7313 75.991 25.2153 75.7944C24.694 75.5978 24.0799 75.4995 23.3729 75.4995C22.6091 75.4995 21.9486 75.6133 21.3861 75.8358C20.8235 76.0583 20.3849 76.3843 20.0649 76.7982C19.7501 77.2121 19.5901 77.714 19.5901 78.2935C19.5901 78.9661 19.8017 79.5146 20.2352 79.944C20.6636 80.3735 21.3138 80.6735 22.1808 80.8495L23.7342 81.1703C24.1264 81.253 24.4154 81.3669 24.6063 81.5169C24.7973 81.667 24.8901 81.8636 24.8901 82.0964C24.8901 82.3655 24.756 82.5879 24.4928 82.7639C24.2296 82.9398 23.8632 83.0277 23.4039 83.0277C22.9085 83.0277 22.5162 82.9243 22.2221 82.7121C21.9279 82.5 21.7215 82.1895 21.6028 81.7704L19.3579 82.1585C19.4611 82.7173 19.6882 83.1933 20.0391 83.5917C20.3952 83.9849 20.8493 84.2902 21.4067 84.4972C21.964 84.7041 22.604 84.8076 23.3265 84.8076C24.116 84.8076 24.8076 84.6834 25.4114 84.4351C26.0152 84.1867 26.4848 83.8401 26.8306 83.4003C27.1712 82.9553 27.3466 82.4379 27.3466 81.8481C27.3466 81.2013 27.135 80.6787 26.7119 80.2803C26.2887 79.8819 25.6436 79.5922 24.7766 79.4111L24.7869 79.4059Z" fill="black"/>
<path d="M35.5672 76.0067C35.015 75.66 34.406 75.4893 33.7403 75.4893C33.2294 75.4893 32.8062 75.572 32.4708 75.748C32.1353 75.9187 31.8618 76.1308 31.6554 76.3844C31.4489 76.6379 31.289 76.8811 31.1754 77.1191H31.0619V75.6031H28.688V88.0001H31.098V83.1831H31.1703C31.2838 83.4262 31.4438 83.6694 31.6554 83.9126C31.867 84.1558 32.1405 84.3627 32.4811 84.5283C32.8165 84.6939 33.2345 84.7767 33.7196 84.7767C34.4112 84.7767 35.0304 84.6007 35.5826 84.2386C36.1348 83.8815 36.5683 83.359 36.8935 82.6657C37.2134 81.9723 37.3734 81.129 37.3734 80.1252C37.3734 79.1214 37.2083 78.2418 36.878 77.5537C36.5477 76.8656 36.109 76.3482 35.5568 76.0015L35.5672 76.0067ZM34.695 81.5274C34.5453 81.9361 34.3286 82.2569 34.0448 82.4897C33.7558 82.7226 33.4048 82.8364 32.9868 82.8364C32.5688 82.8364 32.2334 82.7226 31.9444 82.4949C31.6554 82.2672 31.4335 81.9516 31.2838 81.5481C31.129 81.1393 31.0516 80.6685 31.0516 80.1252C31.0516 79.5819 31.129 79.1007 31.2786 78.7023C31.4283 78.3039 31.6502 77.9883 31.9392 77.7658C32.2282 77.5434 32.5791 77.4295 32.992 77.4295C33.4048 77.4295 33.7712 77.5434 34.0551 77.7762C34.3389 78.009 34.5557 78.3246 34.7002 78.7282C34.8447 79.1318 34.9221 79.5974 34.9221 80.1252C34.9221 80.6529 34.8498 81.1186 34.7002 81.5274H34.695Z" fill="black"/>
<path d="M45.2591 76.1979C44.8979 75.9547 44.4902 75.7788 44.0309 75.6598C43.5768 75.546 43.1071 75.4839 42.622 75.4839C41.9511 75.4839 41.3474 75.5822 40.8158 75.7736C40.2843 75.9651 39.8353 76.2445 39.4792 76.6118C39.1231 76.9792 38.8651 77.4242 38.7051 77.9519L40.9139 78.3141C40.9861 78.1226 41.0893 77.9467 41.2338 77.7915C41.3783 77.6363 41.5641 77.5121 41.7963 77.4138C42.0286 77.3207 42.2969 77.2741 42.6066 77.2741C42.9162 77.2741 43.1639 77.3207 43.3755 77.4138C43.5871 77.5069 43.7471 77.6415 43.8554 77.8226C43.9638 77.9985 44.0154 78.2158 44.0154 78.4745V78.5159C44.0154 78.7073 43.9432 78.8574 43.7935 78.9557C43.6439 79.054 43.4116 79.1264 43.0917 79.173C42.7717 79.2195 42.3537 79.2661 41.8325 79.323C41.3886 79.3644 40.9603 79.442 40.5578 79.5507C40.1552 79.6593 39.7888 79.8146 39.474 80.0215C39.1592 80.2285 38.9064 80.4975 38.7206 80.839C38.5348 81.1753 38.4419 81.5996 38.4419 82.0963C38.4419 82.6913 38.5709 83.1932 38.8341 83.5916C39.0921 83.99 39.4482 84.2953 39.9024 84.4971C40.3565 84.6988 40.8674 84.7972 41.4351 84.7972C41.8789 84.7972 42.2711 84.7351 42.6117 84.6109C42.9523 84.4867 43.2413 84.3211 43.4839 84.109C43.7264 83.8969 43.9174 83.6485 44.0619 83.3691H44.1444V84.6212H46.4255V78.5469C46.4255 78.0036 46.3222 77.538 46.1106 77.1448C45.8991 76.7567 45.6101 76.4411 45.2488 76.1979H45.2591ZM44.0412 81.3978C44.0412 81.7134 43.9587 82.0032 43.7987 82.2619C43.6387 82.5206 43.4168 82.7224 43.1278 82.8776C42.8388 83.0276 42.5085 83.1052 42.1266 83.1052C41.8634 83.1052 41.6312 83.0638 41.4248 82.9862C41.2235 82.9035 41.0584 82.7844 40.9448 82.6292C40.8261 82.4688 40.7694 82.2774 40.7694 82.0446C40.7694 81.7962 40.8313 81.5944 40.9551 81.434C41.079 81.2736 41.2545 81.1495 41.4764 81.0511C41.7034 80.9528 41.9615 80.8856 42.2556 80.839C42.3898 80.8235 42.5446 80.8028 42.7149 80.7718C42.8852 80.7459 43.0607 80.7148 43.2362 80.6838C43.4116 80.6527 43.5716 80.6114 43.7161 80.57C43.8606 80.5286 43.969 80.4768 44.0361 80.4251V81.403L44.0412 81.3978Z" fill="black"/>
<path d="M53.7744 81.9776C53.6712 82.169 53.5473 82.3398 53.3977 82.4743C53.248 82.614 53.0777 82.7175 52.8816 82.7899C52.6907 82.8623 52.4791 82.8986 52.2468 82.8986C51.8185 82.8986 51.4573 82.7796 51.1631 82.5416C50.8689 82.3036 50.6522 81.9776 50.5025 81.5637C50.3529 81.1497 50.2806 80.6737 50.2806 80.146C50.2806 79.6182 50.3529 79.1215 50.5025 78.7076C50.6522 78.2937 50.8689 77.9677 51.1631 77.7401C51.4573 77.5072 51.8133 77.3934 52.2468 77.3934C52.4791 77.3934 52.6855 77.4296 52.8764 77.4969C53.0674 77.5641 53.2325 77.6676 53.377 77.797C53.5215 77.9263 53.6454 78.0867 53.7486 78.273C53.8518 78.4592 53.9241 78.6714 53.9757 78.9042L56.2206 78.4851C56.1328 78.0246 55.978 77.6055 55.7561 77.233C55.529 76.8605 55.2452 76.5449 54.8994 76.2862C54.5485 76.0275 54.1511 75.8308 53.7022 75.6911C53.2532 75.5514 52.7629 75.479 52.2314 75.479C51.3231 75.479 50.5438 75.6756 49.8884 76.0637C49.233 76.4517 48.7273 77.0002 48.3712 77.6935C48.0151 78.392 47.8345 79.2043 47.8345 80.1408C47.8345 81.0773 48.0099 81.8793 48.3712 82.5726C48.7273 83.2711 49.233 83.8144 49.8884 84.2024C50.5438 84.5905 51.3282 84.7871 52.2314 84.7871C52.7681 84.7871 53.2583 84.7198 53.7125 84.575C54.1666 84.4301 54.564 84.2283 54.9149 83.9592C55.2658 83.6902 55.5497 83.3694 55.7767 82.9969C56.0038 82.6243 56.1586 82.1949 56.2412 81.7189L53.9963 81.3101C53.955 81.5533 53.8828 81.7706 53.7796 81.9621L53.7744 81.9776Z" fill="black"/>
<path d="M65.7521 80.068C65.7521 79.2919 65.6437 78.6193 65.4269 78.0501C65.2102 77.481 64.9057 77.005 64.5238 76.6273C64.1368 76.2496 63.6929 75.965 63.182 75.7735C62.6711 75.5873 62.1241 75.4941 61.5358 75.4941C60.6636 75.4941 59.8999 75.6908 59.2496 76.084C58.5994 76.4772 58.0988 77.0205 57.7479 77.7241C57.3918 78.4226 57.2163 79.2401 57.2163 80.1715C57.2163 81.1028 57.3918 81.9462 57.753 82.6395C58.1091 83.3328 58.62 83.8709 59.2857 84.2434C59.9515 84.6211 60.741 84.8074 61.6545 84.8074C62.3563 84.8074 62.9756 84.7039 63.5175 84.5021C64.0542 84.2952 64.5032 84.0106 64.8644 83.6329C65.2205 83.2604 65.4734 82.8257 65.6179 82.329L63.4298 81.9203C63.342 82.1531 63.2182 82.3446 63.0582 82.505C62.893 82.6654 62.6969 82.7844 62.4699 82.862C62.2376 82.9447 61.9796 82.981 61.6958 82.981C61.2778 82.981 60.9113 82.893 60.5965 82.7171C60.2817 82.5412 60.0392 82.2721 59.8637 81.9203C59.7089 81.5995 59.6315 81.2063 59.616 80.751H65.7521V80.0732V80.068ZM60.4882 77.6051C60.7772 77.4137 61.1333 77.3154 61.5513 77.3154C61.9693 77.3154 62.3099 77.4085 62.5937 77.6C62.8724 77.7914 63.0891 78.0605 63.2285 78.4071C63.3265 78.6451 63.3781 78.9297 63.4091 79.2246H59.6263C59.6521 78.9245 59.7089 78.64 59.8224 78.3864C59.9721 78.0553 60.194 77.7914 60.4882 77.6V77.6051Z" fill="black"/>
<path d="M74.1642 72.6021L70.0718 84.6265H72.7811L73.6739 81.8325H77.9315L78.8552 84.6265H81.5801L77.3844 72.6021H74.1693H74.1642ZM74.2829 79.9026L74.6286 78.8212C74.8506 78.0917 75.0673 77.2742 75.2892 76.3791C75.4337 75.7996 75.5885 75.1735 75.7434 74.5268C75.9085 75.1684 76.0685 75.7893 76.2181 76.3636C76.4555 77.2535 76.6929 78.071 76.92 78.8212L77.2761 79.9026H74.2726H74.2829Z" fill="black"/>
<path d="M87.2979 75.4839C86.7921 75.4839 86.3483 75.6288 85.9613 75.9133C85.5742 76.1979 85.2955 76.6222 85.1304 77.181H85.0323V75.6081H82.6997V84.6316H85.1097V79.4989C85.1097 79.1212 85.1923 78.7953 85.3523 78.5107C85.5174 78.2313 85.7445 78.0088 86.0387 77.8484C86.3328 77.688 86.6631 77.6104 87.0295 77.6104C87.2101 77.6104 87.4062 77.6208 87.6075 77.6415C87.8139 77.6622 87.9688 77.6932 88.072 77.7294V75.5667C87.9636 75.5408 87.8397 75.5201 87.6952 75.5046C87.5507 75.4891 87.4166 75.4839 87.2927 75.4839H87.2979Z" fill="black"/>
<path d="M94.2803 81.9776C94.1771 82.169 94.0532 82.3398 93.9035 82.4743C93.7539 82.614 93.5784 82.7175 93.3875 82.7899C93.1965 82.8623 92.9849 82.8986 92.7527 82.8986C92.3244 82.8986 91.9631 82.7796 91.669 82.5416C91.3748 82.3036 91.1581 81.9776 91.0084 81.5637C90.8587 81.1497 90.7865 80.6737 90.7865 80.146C90.7865 79.6182 90.8587 79.1215 91.0084 78.7076C91.1581 78.2937 91.3748 77.9677 91.669 77.7401C91.9631 77.5124 92.3192 77.3934 92.7527 77.3934C92.9849 77.3934 93.1914 77.4296 93.3823 77.4969C93.5733 77.5641 93.7384 77.6676 93.8829 77.797C94.0274 77.9263 94.1512 78.0867 94.2545 78.273C94.3577 78.4592 94.4299 78.6714 94.4815 78.9042L96.7264 78.4851C96.6438 78.0246 96.4839 77.6055 96.262 77.233C96.0401 76.8605 95.7511 76.5449 95.4053 76.2862C95.0544 76.0275 94.657 75.8308 94.208 75.6911C93.759 75.5514 93.2688 75.479 92.7372 75.479C91.8341 75.479 91.0497 75.6756 90.3943 76.0637C89.7389 76.4517 89.2331 77.0002 88.877 77.6935C88.521 78.392 88.3403 79.2043 88.3403 80.1408C88.3403 81.0773 88.5158 81.8793 88.877 82.5726C89.2331 83.2711 89.7389 83.8144 90.3943 84.2024C91.0497 84.5905 91.8341 84.7871 92.7372 84.7871C93.2739 84.7871 93.7642 84.7198 94.2183 84.575C94.6725 84.4353 95.0698 84.2283 95.4208 83.9592C95.7665 83.6902 96.0555 83.3694 96.2826 82.9969C96.5097 82.6243 96.6645 82.1949 96.7471 81.7189L94.5022 81.3101C94.4609 81.5533 94.3886 81.7706 94.2854 81.9621L94.2803 81.9776Z" fill="black"/>
<path d="M104.829 75.8979C104.364 75.6237 103.823 75.4892 103.198 75.4892C102.434 75.4892 101.815 75.6961 101.335 76.1049C100.958 76.4257 100.68 76.8862 100.458 77.4191V72.6021H98.0942V84.6265H100.504V79.4059C100.504 79.0023 100.577 78.6608 100.726 78.3814C100.876 78.1021 101.082 77.8899 101.345 77.7399C101.609 77.5898 101.913 77.5174 102.249 77.5174C102.759 77.5174 103.157 77.6778 103.441 77.9934C103.73 78.309 103.869 78.7488 103.869 79.3076V84.6265H106.289V78.8885C106.289 78.1848 106.16 77.5795 105.902 77.0672C105.644 76.5602 105.283 76.167 104.824 75.8979H104.829Z" fill="black"/>
<path d="M110.459 75.603H108.049V84.6265H110.459V75.603Z" fill="black"/>
<path d="M109.257 71.3604C108.89 71.3604 108.581 71.4794 108.323 71.7225C108.065 71.9657 107.936 72.2555 107.936 72.6021C107.936 72.9488 108.065 73.2385 108.323 73.4817C108.581 73.7249 108.89 73.8439 109.257 73.8439C109.623 73.8439 109.933 73.7249 110.191 73.4817C110.449 73.2385 110.583 72.9488 110.583 72.6021C110.583 72.2555 110.454 71.9657 110.191 71.7225C109.933 71.4794 109.618 71.3604 109.257 71.3604Z" fill="black"/>
<path d="M116.203 82.7899C116.038 82.8158 115.909 82.8261 115.816 82.8261C115.522 82.8261 115.31 82.7589 115.186 82.6192C115.063 82.4795 115.001 82.2725 115.001 81.988V77.4555H116.678V75.6084H115.001V72.6074H112.591V75.6084H111.352V77.4555H112.591V82.2001C112.591 83.0228 112.828 83.654 113.308 84.099C113.788 84.5387 114.474 84.7612 115.372 84.7612C115.615 84.7612 115.868 84.7457 116.131 84.7147C116.394 84.6836 116.662 84.6267 116.931 84.5439L116.585 82.7278C116.497 82.7485 116.373 82.7744 116.208 82.7951L116.203 82.7899Z" fill="black"/>
<path d="M124.718 76.6224C124.331 76.2447 123.887 75.9601 123.376 75.7687C122.865 75.5824 122.318 75.4893 121.73 75.4893C120.858 75.4893 120.094 75.6859 119.449 76.0791C118.799 76.4723 118.298 77.0156 117.947 77.7193C117.591 78.4178 117.416 79.2353 117.416 80.1666C117.416 81.0979 117.591 81.9413 117.952 82.6346C118.308 83.3279 118.819 83.866 119.485 84.2386C120.151 84.6163 120.94 84.8025 121.854 84.8025C122.556 84.8025 123.175 84.699 123.717 84.4973C124.253 84.2903 124.702 84.0057 125.064 83.628C125.42 83.2555 125.678 82.8209 125.817 82.3242L123.629 81.9154C123.541 82.1482 123.417 82.3397 123.257 82.5001C123.097 82.6605 122.896 82.7795 122.669 82.8571C122.442 82.9347 122.184 82.9761 121.895 82.9761C121.477 82.9761 121.111 82.8881 120.796 82.7122C120.481 82.5363 120.238 82.2673 120.063 81.9154C119.908 81.5946 119.831 81.2014 119.815 80.7461H125.951V80.0683C125.951 79.2922 125.843 78.6196 125.626 78.0504C125.409 77.4813 125.105 77.0053 124.723 76.6276L124.718 76.6224ZM120.687 77.6054C120.976 77.414 121.332 77.3157 121.75 77.3157C122.169 77.3157 122.509 77.4088 122.793 77.6003C123.072 77.7917 123.288 78.0608 123.428 78.4074C123.526 78.6454 123.577 78.93 123.608 79.2249H119.826C119.851 78.9248 119.908 78.6402 120.022 78.3867C120.171 78.0556 120.393 77.7917 120.687 77.6003V77.6054Z" fill="black"/>
<path d="M132.872 81.9776C132.769 82.169 132.645 82.3398 132.495 82.4743C132.345 82.614 132.175 82.7175 131.979 82.7899C131.788 82.8623 131.577 82.8986 131.344 82.8986C130.916 82.8986 130.555 82.7796 130.261 82.5416C129.966 82.3036 129.75 81.9776 129.6 81.5637C129.45 81.1497 129.378 80.6737 129.378 80.146C129.378 79.6182 129.45 79.1215 129.6 78.7076C129.744 78.2937 129.966 77.9677 130.261 77.7401C130.555 77.5072 130.911 77.3934 131.344 77.3934C131.577 77.3934 131.783 77.4296 131.974 77.4969C132.165 77.5641 132.33 77.6676 132.474 77.797C132.619 77.9263 132.743 78.0867 132.846 78.273C132.949 78.4592 133.022 78.6714 133.073 78.9042L135.318 78.4851C135.23 78.0246 135.075 77.6055 134.854 77.233C134.626 76.8605 134.343 76.5449 133.992 76.2862C133.646 76.0275 133.243 75.8308 132.794 75.6911C132.345 75.5514 131.855 75.479 131.324 75.479C130.421 75.479 129.636 75.6756 128.981 76.0637C128.325 76.4517 127.82 77.0002 127.463 77.6935C127.107 78.392 126.927 79.2043 126.927 80.1408C126.927 81.0773 127.102 81.8793 127.463 82.5726C127.82 83.2711 128.325 83.8144 128.981 84.2024C129.636 84.5905 130.421 84.7871 131.324 84.7871C131.86 84.7871 132.356 84.7198 132.805 84.575C133.254 84.4301 133.656 84.2283 134.007 83.9592C134.358 83.6902 134.642 83.3694 134.869 82.9969C135.096 82.6243 135.251 82.1949 135.333 81.7189L133.089 81.3101C133.047 81.5533 132.975 81.7706 132.872 81.9621V81.9776Z" fill="black"/>
<path d="M140.68 82.7899C140.515 82.8158 140.386 82.8261 140.293 82.8261C139.999 82.8261 139.787 82.7589 139.663 82.6192C139.539 82.4795 139.472 82.2725 139.472 81.988V77.4555H141.155V75.6084H139.472V72.6074H137.062V75.6084H135.824V77.4555H137.062V82.2001C137.062 83.0228 137.3 83.654 137.78 84.099C138.254 84.5387 138.946 84.7612 139.844 84.7612C140.086 84.7612 140.339 84.7457 140.603 84.7147C140.866 84.6836 141.134 84.6267 141.402 84.5439L141.057 82.7278C140.969 82.7485 140.845 82.7744 140.68 82.7951V82.7899Z" fill="black"/>
<path d="M149.257 80.2703C148.834 79.8719 148.189 79.5821 147.322 79.401L145.706 79.0802C145.283 78.9923 144.984 78.8733 144.808 78.7181C144.633 78.5628 144.545 78.3714 144.545 78.1437C144.545 77.8643 144.679 77.6419 144.948 77.4763C145.216 77.3107 145.546 77.2279 145.944 77.2279C146.382 77.2279 146.733 77.3262 146.991 77.5229C147.249 77.7195 147.43 77.9678 147.518 78.2783L149.654 77.9006C149.546 77.409 149.334 76.9848 149.009 76.6277C148.689 76.2656 148.266 75.9862 147.75 75.7895C147.229 75.5929 146.615 75.4946 145.908 75.4946C145.144 75.4946 144.483 75.6085 143.921 75.8309C143.358 76.0586 142.92 76.3794 142.6 76.7933C142.285 77.2072 142.125 77.7091 142.125 78.2886C142.125 78.9612 142.336 79.5097 142.77 79.9391C143.198 80.3686 143.848 80.6687 144.715 80.8446L146.269 81.1654C146.661 81.2482 146.95 81.362 147.141 81.512C147.332 81.6621 147.425 81.8587 147.425 82.0915C147.425 82.3606 147.291 82.5831 147.027 82.759C146.764 82.9349 146.398 83.0229 145.939 83.0229C145.443 83.0229 145.051 82.9194 144.757 82.7072C144.463 82.4951 144.256 82.1847 144.137 81.7656L141.893 82.1536C141.996 82.7124 142.223 83.1884 142.574 83.5868C142.93 83.98 143.384 84.2853 143.941 84.4923C144.499 84.6992 145.139 84.8027 145.861 84.8027C146.651 84.8027 147.342 84.6785 147.946 84.4302C148.55 84.1818 149.019 83.8352 149.365 83.3954C149.706 82.9504 149.881 82.433 149.881 81.8432C149.881 81.1964 149.67 80.6738 149.247 80.2754L149.257 80.2703Z" fill="black"/>
<path d="M110.16 2.02822C115.831 4.5635 118.582 9.38053 118.582 16.3137C118.582 19.9511 117.834 22.9055 116.414 25.2752C114.913 27.5569 112.828 29.4144 110.16 30.77C112.497 31.7841 114.247 33.0517 115.496 34.5781C116.662 36.182 117.328 38.7173 117.416 42.2667L117.746 50.3796C117.746 52.6613 117.999 54.436 118.246 55.5381C118.747 57.4784 119.578 58.7512 120.914 59.2582V60.6087H110.903C110.655 60.1016 110.485 59.4238 110.32 58.5804C110.154 57.7371 109.984 56.1279 109.902 53.7634L109.401 43.7051C109.153 39.7314 107.734 37.1134 105.066 35.7629C103.482 35.0024 101.061 34.5781 97.7276 34.5781H8.09193V60.6138H0V0H98.899C103.487 0 107.239 0.672625 110.16 2.02822ZM107.074 25.4407C109.241 23.9196 110.412 21.1308 110.412 17.0743C110.412 12.7643 108.828 9.8048 105.742 8.28363C104.075 7.44026 101.903 7.01599 99.0694 7.01599H8.09193V27.7277H98.063C101.82 27.7277 104.818 26.9671 107.068 25.4459L107.074 25.4407Z" fill="black"/>
<path d="M137.124 7.49202V25.834H147.337V32.85H137.124V53.4737H149.897V60.6604H129.203V0.0517578H150.005V7.49202H137.124Z" fill="black"/>
</g>
<defs>
<clipPath id="clip0_2176_4">
<rect width="150" height="88" fill="white"/>
</clipPath>
</defs>
</svg>
